<?xml version="1.0" encoding="UTF-8"?>
<svg version="1.1" xmlns="http://www.w3.org/2000/svg" width="1200" height="630">
<path d="M0 0 C396 0 792 0 1200 0 C1200 207.9 1200 415.8 1200 630 C804 630 408 630 0 630 C0 422.1 0 214.2 0 0 Z " fill="#FEFEFE" transform="translate(0,0)"/>
<path d="M0 0 C37.29 0 74.58 0 113 0 C113 52.8 113 105.6 113 160 C109.37193866 158.54877547 106.25771216 157.12455815 102.88671875 155.234375 C101.89720215 154.68015869 100.90768555 154.12594238 99.88818359 153.55493164 C98.83195801 152.9593042 97.77573242 152.36367676 96.6875 151.75 C95.59260254 151.13825928 94.49770508 150.52651855 93.36962891 149.89624023 C87.607237 146.66133615 81.90616171 143.36271539 76.26171875 139.92578125 C75.18897705 139.27834961 74.11623535 138.63091797 73.01098633 137.96386719 C70.95790152 136.71906964 68.91426339 135.45852334 66.8815918 134.18066406 C61.5319929 130.94475022 61.5319929 130.94475022 55.4921875 129.75390625 C50.39813642 131.57158219 45.89972583 134.13250518 41.25 136.875 C39.73950073 137.74705078 39.73950073 137.74705078 38.19848633 138.63671875 C35.12574934 140.41344345 32.06213417 142.20507611 29 144 C26.36489627 145.53625103 23.72859488 147.07039048 21.09082031 148.60205078 C19.54734359 149.49985124 18.00612034 150.40154336 16.46777344 151.30810547 C11.06265317 154.47114738 5.63652044 157.18173978 0 160 C0 107.2 0 54.4 0 0 Z " fill="#01ABCD" transform="translate(71,202)"/>
<path d="M0 0 C2.59521484 1.06298828 2.59521484 1.06298828 5.2109375 2.5703125 C6.19739258 3.13065186 7.18384766 3.69099121 8.20019531 4.26831055 C9.24788086 4.88101807 10.29556641 5.49372559 11.375 6.125 C12.46393555 6.74866455 13.55287109 7.3723291 14.67480469 8.01489258 C17.54459115 9.66293575 20.40715285 11.3221452 23.26574707 12.98944092 C26.10863246 14.64600646 28.95730068 16.29259364 31.8046875 17.94140625 C39.22916322 22.25107289 46.63868793 26.58321276 54 31 C54 46.51 54 62.02 54 78 C16.71 78 -20.58 78 -59 78 C-59 62.49 -59 46.98 -59 31 C-49.28471208 25.02136128 -39.52852135 19.20428025 -29.63574219 13.53686523 C-27.95399902 12.5730896 -27.95399902 12.5730896 -26.23828125 11.58984375 C-25.16271973 10.97351074 -24.0871582 10.35717773 -22.97900391 9.72216797 C-20.44328821 8.25626578 -17.92555388 6.76719336 -15.41796875 5.25390625 C-14.78044678 4.87363281 -14.1429248 4.49335938 -13.48608398 4.1015625 C-11.89702209 3.15049409 -10.31530243 2.18718581 -8.734375 1.22265625 C-5.4969689 -0.22492676 -3.52544752 -0.26491329 0 0 Z " fill="#01ABCE" transform="translate(130,351)"/>
<path d="M0 0 C1.49648071 0.00858032 1.49648071 0.00858032 3.02319336 0.01733398 C10.01871164 0.18773249 15.98327782 0.70363357 21.4375 5.5 C26.12716188 10.55465915 27.75849613 15.26583743 27.6484375 22.0234375 C27.16333267 27.71892755 25.70212202 32.04568468 21.9375 36.375 C17.71584688 39.47159328 12.46725298 40.39918218 7.4375 41.5 C11.12174308 46.23052359 14.84661195 50.87623347 18.86328125 55.328125 C19.45278564 55.98675537 20.04229004 56.64538574 20.6496582 57.32397461 C21.8293866 58.63612643 23.0191907 59.93929783 24.21948242 61.23266602 C28.33616659 65.83138045 28.33616659 65.83138045 28.875 69.38671875 C28.4375 71.5 28.4375 71.5 27.4375 72.5 C24.640625 72.86328125 24.640625 72.86328125 21.4375 72.5 C19.234375 70.48046875 19.234375 70.48046875 17.1875 67.6875 C13.31342844 62.61135565 9.22892825 57.88973668 4.89453125 53.203125 C2.00649055 50.02582109 -0.7838497 46.77290947 -3.5625 43.5 C-3.57708252 44.30219971 -3.59166504 45.10439941 -3.60668945 45.9309082 C-3.68106719 49.55859699 -3.77776243 53.18535504 -3.875 56.8125 C-3.90883789 58.70645508 -3.90883789 58.70645508 -3.94335938 60.63867188 C-3.97880859 61.84716797 -4.01425781 63.05566406 -4.05078125 64.30078125 C-4.07696533 65.41622314 -4.10314941 66.53166504 -4.13012695 67.6809082 C-4.5625 70.5 -4.5625 70.5 -5.93041992 72.39916992 C-7.5625 73.5 -7.5625 73.5 -10.1875 73.3125 C-12.5625 72.5 -12.5625 72.5 -13.5625 70.5 C-13.66960902 68.39209132 -13.71138634 66.28075867 -13.72363281 64.17016602 C-13.72859772 63.52120361 -13.73356262 62.87224121 -13.73867798 62.20361328 C-13.75330054 60.05370022 -13.76010119 57.9038609 -13.765625 55.75390625 C-13.77137574 54.26179502 -13.77713348 52.76968381 -13.78289795 51.27757263 C-13.79340776 48.14785416 -13.79925076 45.01816138 -13.80273438 41.88842773 C-13.80822354 37.87544204 -13.8322603 33.8627949 -13.86070633 29.8499155 C-13.87931582 26.76758323 -13.88453736 23.68533285 -13.88607025 20.60294914 C-13.88910042 19.12334273 -13.89714125 17.64373788 -13.91025543 16.16418648 C-13.92728383 14.09560371 -13.92544438 12.02785266 -13.91894531 9.95922852 C-13.92259094 8.78167496 -13.92623657 7.6041214 -13.92999268 6.3908844 C-13.5625 3.5 -13.5625 3.5 -12.17781067 1.62254333 C-8.7187922 -0.78126554 -4.05853221 -0.02624839 0 0 Z " fill="#5E5E5E" transform="translate(991.5625,308.5)"/>
<path d="M0 0 C9.15136761 0.0044142 16.24239756 0.4774977 23.15625 7 C27.97321695 12.3521855 27.78713163 17.40443979 27.7109375 24.26953125 C27.33959743 29.84650897 25.59360766 32.3914405 21.625 36.1875 C16.95239662 39.55177444 13.12425717 40.54132715 7.5 41.4375 C12.68214664 47.88149322 17.95754577 54.15744674 23.5546875 60.24609375 C28.41469273 65.72091892 28.41469273 65.72091892 28.8125 69.0625 C28.5 71.4375 28.5 71.4375 26.5 73.4375 C23.24764962 73.42314084 22.17627163 72.13110586 19.80078125 69.8828125 C18.79532134 68.78454349 17.79971158 67.67720074 16.8125 66.5625 C16.28648193 65.98113281 15.76046387 65.39976562 15.21850586 64.80078125 C11.16492487 60.28409201 7.30080669 55.63466606 3.53515625 50.875 C1.33034751 48.23430776 -1.03663492 45.83660339 -3.5 43.4375 C-3.51458252 44.27522949 -3.52916504 45.11295898 -3.54418945 45.97607422 C-3.60520707 49.08128902 -3.67935065 52.18583117 -3.76245117 55.29052734 C-3.81209959 57.29632336 -3.84654164 59.30247687 -3.88085938 61.30859375 C-3.91630859 62.56542969 -3.95175781 63.82226562 -3.98828125 65.1171875 C-4.01446533 66.27976074 -4.04064941 67.44233398 -4.06762695 68.64013672 C-4.21031006 69.5632666 -4.35299316 70.48639648 -4.5 71.4375 C-7.5 73.4375 -7.5 73.4375 -9.625 73.125 C-11.5 72.4375 -11.5 72.4375 -12.5 71.4375 C-12.60478906 69.30092958 -12.63856654 67.16085662 -12.64526367 65.02172852 C-12.64862228 64.35179871 -12.6519809 63.6818689 -12.65544128 62.99163818 C-12.66497721 60.76654226 -12.66689572 58.54152137 -12.66796875 56.31640625 C-12.67117953 54.77562936 -12.67454346 53.23485278 -12.67805481 51.69407654 C-12.68405272 48.46002495 -12.68589404 45.22600012 -12.68530273 41.99194336 C-12.68520108 37.8410248 -12.69885353 33.69027717 -12.71607494 29.53939915 C-12.7271754 26.35588284 -12.72922255 23.17240812 -12.72869301 19.98887444 C-12.72987607 18.45821481 -12.73431603 16.9275542 -12.74202538 15.39691353 C-12.75178599 13.25870812 -12.74896305 11.12087702 -12.74291992 8.98266602 C-12.74434494 7.76434586 -12.74576996 6.5460257 -12.74723816 5.29078674 C-12.14666941 -1.6401614 -5.41372814 0.011426 0 0 Z " fill="#5D5D5C" transform="translate(620.5,308.5625)"/>
<path d="M0 0 C0.95197266 -0.01998047 1.90394531 -0.03996094 2.88476562 -0.06054688 C10.30130609 -0.05549817 17.63381896 1.09740303 23.38256836 6.14550781 C29.02577757 12.19541086 29.91607288 18.38974191 29.74609375 26.46875 C29.00937573 33.55616382 25.6236992 37.81327429 20.21875 42.2109375 C16.73356539 44.61082339 14.15684143 45.69046407 9.890625 45.6328125 C8.62412109 45.62314453 8.62412109 45.62314453 7.33203125 45.61328125 C6.02298828 45.58814453 6.02298828 45.58814453 4.6875 45.5625 C3.79933594 45.55347656 2.91117187 45.54445313 1.99609375 45.53515625 C-0.19038058 45.51164577 -2.37630094 45.47878499 -4.5625 45.4375 C-4.53893433 46.54992065 -4.53893433 46.54992065 -4.51489258 47.68481445 C-4.45259286 51.03979896 -4.41352493 54.39466186 -4.375 57.75 C-4.33729492 59.50086914 -4.33729492 59.50086914 -4.29882812 61.28710938 C-4.28432617 62.96450195 -4.28432617 62.96450195 -4.26953125 64.67578125 C-4.2538208 65.70743408 -4.23811035 66.73908691 -4.22192383 67.80200195 C-4.5625 70.4375 -4.5625 70.4375 -5.9519043 72.30541992 C-7.5625 73.4375 -7.5625 73.4375 -9.625 73.3125 C-11.5625 72.4375 -11.5625 72.4375 -13.5625 69.4375 C-13.82319641 66.59130859 -13.82319641 66.59130859 -13.8371582 63.0859375 C-13.84669022 61.77447754 -13.85622223 60.46301758 -13.86604309 59.11181641 C-13.86578169 57.67871067 -13.86484477 56.24560491 -13.86328125 54.8125 C-13.86716792 53.34423705 -13.87150253 51.87597521 -13.87626648 50.40771484 C-13.88372779 47.3310176 -13.8834378 44.25443511 -13.87817383 41.17773438 C-13.87237473 37.23312475 -13.88932077 33.28898398 -13.9125185 29.3444519 C-13.9272417 26.31271616 -13.92812958 23.28109377 -13.92500877 20.24932861 C-13.92552255 18.79485138 -13.93077095 17.3403679 -13.94082069 15.88592529 C-13.95314099 13.85367405 -13.94446672 11.82132816 -13.93481445 9.7890625 C-13.93544388 8.63229004 -13.9360733 7.47551758 -13.9367218 6.28369141 C-13.5625 3.4375 -13.5625 3.4375 -12.17681885 1.56578064 C-8.72365578 -0.84770604 -4.05484975 -0.02936363 0 0 Z " fill="#5E5E5D" transform="translate(308.5625,308.5625)"/>
<path d="M0 0 C3.39048335 0.49444549 3.92479263 0.84918683 6 3.4375 C7.06188965 5.79447937 7.06188965 5.79447937 8.03710938 8.6081543 C8.40759399 9.66322678 8.77807861 10.71829926 9.15979004 11.80534363 C9.55049683 12.94594742 9.94120361 14.08655121 10.34375 15.26171875 C10.75411499 16.43708694 11.16447998 17.61245514 11.58728027 18.82344055 C12.6773244 21.95006221 13.75990817 25.07906231 14.83880615 28.20953369 C16.3544961 32.60045934 17.88539342 36.98611317 19.41271973 41.3730011 C20.22403462 43.70622829 21.03329476 46.04017128 21.84020996 48.37492371 C23.42063217 52.94291012 25.00651707 57.49686444 26.75585938 62.00317383 C27.99680075 65.42866878 28.35197288 67.82977794 28 71.4375 C27 72.4375 27 72.4375 23.9375 72.5 C22.968125 72.479375 21.99875 72.45875 21 72.4375 C20.1605118 70.33578133 19.32860344 68.23103375 18.5 66.125 C18.0359375 64.95324219 17.571875 63.78148437 17.09375 62.57421875 C16 59.4375 16 59.4375 16 56.4375 C5.44 56.4375 -5.12 56.4375 -16 56.4375 C-16.66 59.4075 -17.32 62.3775 -18 65.4375 C-18.94280904 67.7945226 -19.92378945 70.13832291 -21 72.4375 C-22.98 72.4375 -24.96 72.4375 -27 72.4375 C-28.17005322 68.27872902 -27.77695017 65.84032872 -26.33203125 61.80078125 C-25.93894775 60.68179443 -25.54586426 59.56280762 -25.14086914 58.40991211 C-24.70250732 57.20214111 -24.26414551 55.99437012 -23.8125 54.75 C-23.36148104 53.48288282 -22.91155163 52.21537736 -22.46264648 50.94750977 C-21.49828732 48.2282658 -20.52721213 45.51153128 -19.55273438 42.79589844 C-17.92387586 38.24248674 -16.34369051 33.67277301 -14.765625 29.1015625 C-13.96159264 26.78325634 -13.15654392 24.46530659 -12.35092163 22.14755249 C-11.82720451 20.63798629 -11.30540009 19.12775509 -10.78555298 17.61685181 C-10.05270843 15.49080021 -9.31069525 13.36816138 -8.56640625 11.24609375 C-8.14302979 10.02720459 -7.71965332 8.80831543 -7.28344727 7.55249023 C-4.4383331 0.64725691 -4.4383331 0.64725691 0 0 Z " fill="#5C5C5B" transform="translate(573,308.5625)"/>
<path d="M0 0 C1.14656301 0.71660188 2.27513754 1.46359834 3.375 2.25 C4.24125 2.78625 5.1075 3.3225 6 3.875 C14.4086028 12.2836028 17.64291171 22.55030242 17.8125 34.125 C17.72491358 45.87357832 14.29255411 55.37274236 6.375 64.25 C-1.75683252 70.86186382 -10.47162072 71.16443478 -20.625 70.25 C-27.05480778 68.23049699 -32.08740377 63.94091568 -35.625 58.25 C-41.48112477 46.01403199 -44.548301 32.45495063 -40 19.1875 C-39.2642062 17.51594056 -38.47332134 15.86736031 -37.625 14.25 C-37.20089844 13.44046875 -36.77679688 12.6309375 -36.33984375 11.796875 C-29.09804593 -0.38709682 -13.30927615 -6.51413708 0 0 Z M-27.3125 12.9375 C-33.68420736 21.26182736 -33.33761322 31.25362016 -32.625 41.25 C-31.52188802 48.76954667 -29.03988095 54.82181467 -23.625 60.25 C-18.6756515 63.84952618 -13.54014969 64.0545335 -7.625 63.25 C-2.242343 61.67732804 1.39427665 58.95831339 4.34375 54.1953125 C4.6840625 53.55335938 5.024375 52.91140625 5.375 52.25 C5.6946875 51.64929688 6.014375 51.04859375 6.34375 50.4296875 C10.11055928 41.53583224 10.05495037 28.57851525 6.75 19.5625 C4.27634593 14.50156111 1.18707986 9.66077407 -3.9453125 7.0859375 C-13.44820425 4.12147856 -20.43819682 6.06319682 -27.3125 12.9375 Z " fill="#5B5B5A" transform="translate(383.625,310.75)"/>
<path d="M0 0 C2.90343152 1.75001352 4.99064497 3.462345 6.99609375 6.203125 C7.37109375 8.953125 7.37109375 8.953125 6.99609375 11.203125 C6.66609375 11.533125 6.33609375 11.863125 5.99609375 12.203125 C0.50508206 11.88012431 -2.59790727 10.40748789 -7.00390625 7.203125 C-13.20552654 5.13591824 -20.50365523 5.13158885 -26.50390625 7.703125 C-32.93746711 14.13668586 -36.20163966 21.46944806 -36.38476562 30.57299805 C-36.37656498 43.93401777 -36.37656498 43.93401777 -30.0625 55.38671875 C-25.05451294 59.97045645 -21.19170929 61.57263221 -14.41796875 61.484375 C-9.26426463 60.88394345 -5.40967177 58.53290319 -1.69140625 55.015625 C1.86422857 49.08956697 3.1103994 43.00724422 3.99609375 36.203125 C2.38927734 36.22052734 2.38927734 36.22052734 0.75 36.23828125 C-0.64713368 36.24765799 -2.04426924 36.25675831 -3.44140625 36.265625 C-4.14845703 36.27400391 -4.85550781 36.28238281 -5.58398438 36.29101562 C-7.39084184 36.29966088 -9.19778228 36.25532511 -11.00390625 36.203125 C-12.00390625 35.203125 -12.00390625 35.203125 -12.12890625 32.203125 C-12.00390625 29.203125 -12.00390625 29.203125 -11.00390625 28.203125 C-7.72047445 27.92493951 -4.42272893 27.97134809 -1.12890625 27.953125 C-0.20464844 27.9325 0.71960938 27.911875 1.671875 27.890625 C2.56003906 27.88546875 3.44820312 27.8803125 4.36328125 27.875 C5.17909668 27.8656543 5.99491211 27.85630859 6.83544922 27.84667969 C9.50595752 28.28723812 10.37424483 29.07388738 11.99609375 31.203125 C13.71624668 41.03497947 10.96916586 52.45277134 5.30859375 60.58984375 C1.42564229 65.36263826 -3.92240875 68.58972358 -10.03613281 69.50854492 C-12.18049239 69.64012379 -14.29328891 69.67113394 -16.44140625 69.640625 C-17.56844971 69.62817749 -17.56844971 69.62817749 -18.71826172 69.61547852 C-24.27662655 69.44544798 -28.57533567 68.78208972 -33.00390625 65.203125 C-33.61363281 64.71714844 -34.22335937 64.23117187 -34.8515625 63.73046875 C-41.43337608 57.81941324 -45.52806737 49.87087354 -46.15869141 41.03417969 C-46.79675317 27.63750842 -46.36238041 16.741734 -37.81640625 5.765625 C-27.87176218 -4.4127607 -12.75919745 -6.11064431 0 0 Z " fill="#5B5B5A" transform="translate(896.00390625,311.796875)"/>
<path d="M0 0 C0.886875 0.53625 1.77375 1.0725 2.6875 1.625 C11.19202861 10.35938074 14.51117091 20.9022715 14.421875 32.83862305 C14.05783031 43.07618233 11.03500637 53.33246016 4 61 C-4.20836884 67.64821654 -11.71302256 68.92633936 -22.03515625 68.25634766 C-29.02213212 67.3447765 -33.72521069 62.7929123 -37.875 57.4375 C-44.80118421 46.48332214 -46.95625978 34.10259651 -44.234375 21.4375 C-41.25104165 11.01951052 -36.19662399 2.92031314 -26.9375 -2.9375 C-18.092536 -6.13206939 -7.89144375 -4.84324659 0 0 Z M-30.1875 10.3125 C-36.44079612 19.58462873 -36.88307468 30.12487478 -36 41 C-35.07135529 44.59428808 -33.73852588 47.72819087 -32 51 C-31.4225 52.11375 -30.845 53.2275 -30.25 54.375 C-26.87276919 58.31510261 -23.09373955 60.47553749 -17.94921875 61.34765625 C-11.75901318 61.62411203 -7.09528057 59.65673347 -2.3125 55.875 C5.33701263 46.36479511 6.01049074 34.74080219 5 23 C3.44004812 14.74318465 -0.1124714 9.74076644 -7 5 C-15.24910157 0.87544922 -24.34222212 4.13320624 -30.1875 10.3125 Z " fill="#5B5B5A" transform="translate(1070,313)"/>
<path d="M0 0 C8.30353634 3.9131608 13.5955855 11.50221111 16.77734375 19.92578125 C19.89934821 33.32018748 18.30041562 46.85655367 11.8125 58.9375 C7.5219965 64.08610419 2.3861877 69.15923463 -4.375 70.5625 C-14.16350428 71.44838698 -21.48037954 71.24096719 -29.23046875 65.08984375 C-36.23501363 58.7723118 -39.92074057 50.73548032 -40.51367188 41.37280273 C-41.09890435 27.15653045 -40.19620729 16.55715024 -30.375 5.5625 C-21.74199293 -2.42303154 -11.06877243 -3.73528234 0 0 Z M-26.375 12.5625 C-30.95558306 19.67445791 -31.5819397 26.02339201 -31.625 34.3125 C-31.645625 35.28960937 -31.66625 36.26671875 -31.6875 37.2734375 C-31.73425916 45.947261 -29.67292929 51.55053477 -24.375 58.5625 C-19.65066924 62.82592045 -16.01271574 63.93097877 -9.78515625 63.83984375 C-4.30177819 63.20885535 -0.5277533 60.63840308 3.4375 56.9375 C8.57285078 49.85904352 8.92800897 41.965938 9.0625 33.5 C9.09597534 32.24195557 9.09597534 32.24195557 9.13012695 30.95849609 C9.10071399 22.83892749 6.45196949 15.38946949 0.625 9.5625 C-4.20534942 5.97070172 -9.34781774 5.93700092 -15.17578125 6.08984375 C-20.14146537 6.82347962 -23.13996113 8.77766388 -26.375 12.5625 Z " fill="#5B5B5B" transform="translate(714.375,310.4375)"/>
<path d="M0 0 C3 0.125 3 0.125 4 1.125 C4.08790975 3.41651417 4.10694038 5.71072524 4.09765625 8.00390625 C4.09515869 9.26017822 4.09266113 10.5164502 4.09008789 11.81079102 C4.08098389 13.42010498 4.07187988 15.02941895 4.0625 16.6875 C4.0315625 24.3290625 4.0315625 24.3290625 4 32.125 C15.88 32.125 27.76 32.125 40 32.125 C39.96040178 21.96786908 39.96040178 21.96786908 39.90991211 11.81079102 C39.90741455 10.55451904 39.90491699 9.29824707 39.90234375 8.00390625 C39.89710693 6.7104126 39.89187012 5.41691895 39.88647461 4.08422852 C40 1.125 40 1.125 41 0.125 C44 0 44 0 47 0.125 C48.85708477 1.98208477 48.12777378 5.0604763 48.12939453 7.54077148 C48.13114685 8.21070129 48.13289917 8.8806311 48.13470459 9.57086182 C48.13912291 11.79596512 48.13618487 14.02098957 48.1328125 16.24609375 C48.13348563 17.78687048 48.13445572 19.3276471 48.13571167 20.86842346 C48.13718868 24.10247811 48.13503429 27.33650519 48.13037109 30.57055664 C48.12467856 34.72142708 48.12794976 38.8722328 48.13394356 43.02310085 C48.13755316 46.20661407 48.13640866 49.39011189 48.13381577 52.57362556 C48.13314735 54.10427928 48.13397194 55.63493438 48.13629532 57.16558647 C48.13882784 59.30370675 48.13497255 61.44172158 48.12939453 63.57983398 C48.12859894 64.79815414 48.12780334 66.0164743 48.12698364 67.27171326 C48 70.125 48 70.125 47 72.125 C45.02 72.125 43.04 72.125 41 72.125 C39.53901155 69.2030231 39.88865099 66.62606525 39.90234375 63.3671875 C39.90484131 62.15401855 39.90733887 60.94084961 39.90991211 59.69091797 C39.91901611 58.14291504 39.92812012 56.59491211 39.9375 55 C39.9684375 47.636875 39.9684375 47.636875 40 40.125 C28.12 40.125 16.24 40.125 4 40.125 C4.03959822 50.28213092 4.03959822 50.28213092 4.09008789 60.43920898 C4.09258545 61.69548096 4.09508301 62.95175293 4.09765625 64.24609375 C4.10289307 65.5395874 4.10812988 66.83308105 4.11352539 68.16577148 C4 71.125 4 71.125 3 72.125 C0.5625 72.3125 0.5625 72.3125 -2 72.125 C-4 70.125 -4 70.125 -4.24723816 67.27171326 C-4.24581314 66.0533931 -4.24438812 64.83507294 -4.24291992 63.57983398 C-4.24481827 62.90815186 -4.24671661 62.23646973 -4.24867249 61.54443359 C-4.25238324 59.319869 -4.24167302 57.09562942 -4.23046875 54.87109375 C-4.22927712 53.32935118 -4.22882375 51.78760788 -4.2290802 50.24586487 C-4.22751488 47.01355449 -4.21922083 43.7813548 -4.20581055 40.54907227 C-4.18880639 36.3970031 -4.18499658 32.2450555 -4.18575573 28.09295559 C-4.18548439 24.90947805 -4.18000924 21.72602732 -4.17275429 18.54255867 C-4.16956288 17.01108058 -4.16759912 15.47959945 -4.16686058 13.94811821 C-4.16470278 11.81228283 -4.15597128 9.67657884 -4.14526367 7.54077148 C-4.14145187 6.32324692 -4.13764008 5.10572235 -4.13371277 3.8513031 C-3.94622795 0.02862815 -3.86234217 0.16093092 0 0 Z " fill="#575757" transform="translate(217,308.875)"/>
<path d="M0 0 C2.5 0.25 2.5 0.25 4.5 2.25 C4.7515564 4.42425537 4.7515564 4.42425537 4.75537109 7.15527344 C4.76233002 8.17683533 4.76928894 9.19839722 4.77645874 10.25091553 C4.77546173 11.35920715 4.77446472 12.46749878 4.7734375 13.609375 C4.79373223 15.94531724 4.81458312 18.28125471 4.8359375 20.6171875 C4.85852218 24.30830911 4.8749988 27.99924222 4.88085938 31.69042969 C4.890387 35.24709383 4.92417801 38.80290257 4.9609375 42.359375 C4.95589203 43.4595697 4.95084656 44.5597644 4.94564819 45.69329834 C5.02461578 51.85061139 5.3206612 55.59957693 9.5 60.25 C14.29534296 63.89446065 17.98630685 64.91284169 24.00390625 64.62890625 C27.9862113 64.02439359 31.43891435 62.91675365 34.5 60.25 C38.96758237 54.09762682 39.07413977 48.94132037 39.0390625 41.48046875 C39.05085541 40.36311844 39.06264832 39.24576813 39.07479858 38.09455872 C39.10998365 34.54206246 39.11922528 30.99015616 39.125 27.4375 C39.14132152 23.86716737 39.16327593 20.29709811 39.19662476 16.72688293 C39.21631995 14.50892448 39.22558266 12.29084464 39.22354126 10.07279968 C39.23397964 8.57532951 39.23397964 8.57532951 39.24462891 7.04760742 C39.24588776 6.16715256 39.24714661 5.28669769 39.2484436 4.37956238 C39.5 2.25 39.5 2.25 41.5 0.25 C44.0625 0.0625 44.0625 0.0625 46.5 0.25 C48.11562901 1.86562901 47.6517384 3.63632552 47.67700195 5.87060547 C47.69625481 7.34882278 47.69625481 7.34882278 47.71589661 8.85690308 C47.72328354 9.93279694 47.73067047 11.0086908 47.73828125 12.1171875 C47.746353 13.22168243 47.75442474 14.32617737 47.76274109 15.46414185 C47.77660969 17.81299255 47.78731934 20.16186365 47.79516602 22.51074219 C47.8122615 26.07527152 47.85610925 29.63884501 47.90039062 33.203125 C47.91052756 35.48697235 47.91904052 37.7708276 47.92578125 40.0546875 C47.94328934 41.11033905 47.96079742 42.1659906 47.97883606 43.25363159 C47.95450678 51.71109164 46.09578151 58.89279532 41.75 66.1875 C35.86022897 71.58645678 29.80959097 72.90042551 22 72.75 C21.19691406 72.76546875 20.39382813 72.7809375 19.56640625 72.796875 C12.83993402 72.7532674 7.51827336 71.01922134 2.51171875 66.42578125 C1.85623047 65.50345703 1.85623047 65.50345703 1.1875 64.5625 C0.73761719 63.96050781 0.28773438 63.35851562 -0.17578125 62.73828125 C-4.18671755 55.20150713 -4.93957329 48.16462669 -4.86328125 39.72265625 C-4.86377975 38.65252792 -4.86427826 37.5823996 -4.86479187 36.47984314 C-4.86246484 34.23515958 -4.85281805 31.99047273 -4.83618164 29.74584961 C-4.81240296 26.29843108 -4.81565422 22.85177761 -4.82226562 19.40429688 C-4.81669435 17.21874537 -4.80958795 15.03319711 -4.80078125 12.84765625 C-4.80169266 11.81439713 -4.80260406 10.781138 -4.80354309 9.71656799 C-4.79401108 8.76475143 -4.78447906 7.81293488 -4.7746582 6.83227539 C-4.77005081 5.99338272 -4.76544342 5.15449005 -4.76069641 4.29017639 C-4.3468015 1.05108838 -3.1601498 0.31601498 0 0 Z " fill="#5B5B5B" transform="translate(919.5,308.75)"/>
<path d="M0 0 C1.24458984 0.00064453 2.48917969 0.00128906 3.77148438 0.00195312 C5.72344727 0.02612305 5.72344727 0.02612305 7.71484375 0.05078125 C9.02001953 0.04755859 10.32519531 0.04433594 11.66992188 0.04101562 C21.38548048 0.09641798 21.38548048 0.09641798 23.65234375 2.36328125 C23.08416193 7.93146307 23.08416193 7.93146307 21.65234375 9.36328125 C20.01761493 9.45028467 18.3792032 9.47029188 16.7421875 9.4609375 C15.85136475 9.45843994 14.96054199 9.45594238 14.04272461 9.45336914 C12.33354858 9.43971313 12.33354858 9.43971313 10.58984375 9.42578125 C6.98046875 9.40515625 3.37109375 9.38453125 -0.34765625 9.36328125 C-0.34765625 16.95328125 -0.34765625 24.54328125 -0.34765625 32.36328125 C6.14432897 32.32374378 6.14432897 32.32374378 12.63623047 32.27319336 C13.84690186 32.26944702 13.84690186 32.26944702 15.08203125 32.265625 C16.32315674 32.25776978 16.32315674 32.25776978 17.58935547 32.24975586 C19.65234375 32.36328125 19.65234375 32.36328125 21.65234375 33.36328125 C21.69488731 35.36282871 21.69315158 37.36369761 21.65234375 39.36328125 C20.65234375 40.36328125 20.65234375 40.36328125 18.61108398 40.47680664 C17.29926147 40.46895142 17.29926147 40.46895142 15.9609375 40.4609375 C14.68561157 40.45719116 14.68561157 40.45719116 13.38452148 40.45336914 C12.29727783 40.44426514 11.21003418 40.43516113 10.08984375 40.42578125 C6.64546875 40.40515625 3.20109375 40.38453125 -0.34765625 40.36328125 C-0.34765625 48.28328125 -0.34765625 56.20328125 -0.34765625 64.36328125 C7.17667149 64.32369291 7.17667149 64.32369291 14.70092773 64.27319336 C16.09807007 64.26944702 16.09807007 64.26944702 17.5234375 64.265625 C18.4817749 64.26038818 19.4401123 64.25515137 20.42749023 64.24975586 C22.65234375 64.36328125 22.65234375 64.36328125 23.65234375 65.36328125 C23.83984375 67.80078125 23.83984375 67.80078125 23.65234375 70.36328125 C20.28682879 73.72879621 15.83744656 72.66047707 11.265625 72.68554688 C10.59096191 72.68337158 9.91629883 72.68119629 9.22119141 72.67895508 C7.15994519 72.67579291 5.10013135 72.69925828 3.0390625 72.72460938 C1.74613281 72.72525391 0.45320313 72.72589844 -0.87890625 72.7265625 C-2.07064453 72.72954346 -3.26238281 72.73252441 -4.49023438 72.7355957 C-5.43318359 72.61273193 -6.37613281 72.48986816 -7.34765625 72.36328125 C-9.72363884 68.79930737 -9.60546518 67.2420476 -9.62231445 63.01171875 C-9.63184647 61.70025879 -9.64137848 60.38879883 -9.65119934 59.03759766 C-9.65093794 57.60449192 -9.65000102 56.17138616 -9.6484375 54.73828125 C-9.65232417 53.2700183 -9.65665878 51.80175646 -9.66142273 50.33349609 C-9.66888404 47.25679885 -9.66859405 44.18021636 -9.66333008 41.10351562 C-9.65753098 37.158906 -9.67447702 33.21476523 -9.69767475 29.27023315 C-9.71239795 26.23849741 -9.71328583 23.20687502 -9.71016502 20.17510986 C-9.7106788 18.72063263 -9.7159272 17.26614915 -9.72597694 15.81170654 C-9.73829724 13.7794553 -9.72962297 11.74710941 -9.7199707 9.71484375 C-9.72060013 8.55807129 -9.72122955 7.40129883 -9.72187805 6.20947266 C-9.34765625 3.36328125 -9.34765625 3.36328125 -8.0043335 1.48957825 C-5.405862 -0.2770004 -3.10296697 -0.00808121 0 0 Z " fill="#5E5E5E" transform="translate(460.34765625,308.63671875)"/>
<path d="M0 0 C2.765625 -0.37231445 2.765625 -0.37231445 6.25 -0.36328125 C7.4978125 -0.36263672 8.745625 -0.36199219 10.03125 -0.36132812 C11.99578125 -0.3371582 11.99578125 -0.3371582 14 -0.3125 C15.3096875 -0.31572266 16.619375 -0.31894531 17.96875 -0.32226562 C27.73321429 -0.26678571 27.73321429 -0.26678571 30 2 C30.25 4.5 30.25 4.5 30 7 C28 9 28 9 25.84521484 9.22705078 C24.97590332 9.21657715 24.1065918 9.20610352 23.2109375 9.1953125 C22.36321777 9.19031738 21.51549805 9.18532227 20.64208984 9.18017578 C19.02488037 9.15286377 19.02488037 9.15286377 17.375 9.125 C12.239375 9.063125 12.239375 9.063125 7 9 C7 16.59 7 24.18 7 32 C13.49211076 31.92092297 13.49211076 31.92092297 19.98388672 31.81982422 C20.79100098 31.8148291 21.59811523 31.80983398 22.4296875 31.8046875 C23.25710449 31.79421387 24.08452148 31.78374023 24.93701172 31.77294922 C27 32 27 32 29 34 C28.44444444 38.55555556 28.44444444 38.55555556 27 40 C25.43827255 40.08685603 23.87270656 40.10702219 22.30859375 40.09765625 C21.03326782 40.09390991 21.03326782 40.09390991 19.73217773 40.09008789 C18.64493408 40.08098389 17.55769043 40.07187988 16.4375 40.0625 C12.993125 40.041875 9.54875 40.02125 6 40 C6 47.92 6 55.84 6 64 C13.52432774 63.96041166 13.52432774 63.96041166 21.04858398 63.90991211 C22.44572632 63.90616577 22.44572632 63.90616577 23.87109375 63.90234375 C24.82943115 63.89710693 25.78776855 63.89187012 26.77514648 63.88647461 C29 64 29 64 30 65 C30.04080783 66.99958364 30.04254356 69.00045254 30 71 C25.41377653 73.29311174 19.03545627 72.23017537 14 72.25 C12.6903125 72.270625 11.380625 72.29125 10.03125 72.3125 C8.7834375 72.31765625 7.535625 72.3228125 6.25 72.328125 C5.10015625 72.3374707 3.9503125 72.34681641 2.765625 72.35644531 C1.85296875 72.23881836 0.9403125 72.12119141 0 72 C-2.37846436 68.43230346 -2.25296453 66.88279743 -2.25878906 62.6484375 C-2.26509338 61.33697754 -2.27139771 60.02551758 -2.27789307 58.67431641 C-2.27431329 57.24120957 -2.27021133 55.80810396 -2.265625 54.375 C-2.26697221 52.90673763 -2.26891321 51.43847569 -2.27142334 49.97021484 C-2.27437199 46.89351147 -2.27008535 43.81692425 -2.26074219 40.74023438 C-2.24934772 36.79571283 -2.25590858 32.85146346 -2.26788712 28.9069519 C-2.27511275 25.87522327 -2.27281456 22.84355919 -2.26763153 19.81182861 C-2.26629698 18.35736051 -2.26793596 16.90288656 -2.27259064 15.44842529 C-2.27766712 13.41613883 -2.26855839 11.38383182 -2.25878906 9.3515625 C-2.25719788 8.19479004 -2.25560669 7.03801758 -2.25396729 5.84619141 C-2 3 -2 3 0 0 Z " fill="#5C5C5C" transform="translate(812,309)"/>
<path d="M0 0 C4.72231013 2.71281646 4.72231013 2.71281646 5.9375 4.6875 C5.625 7.375 5.625 7.375 4.9375 9.6875 C2.34331041 10.6603211 0.61609328 10.98151064 -1.96484375 9.86328125 C-2.63644531 9.49589844 -3.30804687 9.12851562 -4 8.75 C-7.55489693 6.82554452 -9.95220939 6.04812146 -14.0625 6.6875 C-17.77406874 8.45223555 -17.77406874 8.45223555 -20.0625 11.6875 C-20.80482207 17.39350293 -20.80482207 17.39350293 -18.09765625 22.203125 C-13.73414966 25.77479835 -8.95253567 27.51393389 -3.74414062 29.56054688 C2.43521428 32.12019598 6.86962326 35.1157129 10.3125 41.0625 C12.10479751 48.59014954 10.87513695 55.83448071 6.87109375 62.44921875 C3.62093519 66.70767733 -0.77865923 70.06679806 -6.09423828 71.0715332 C-8.2450553 71.2230806 -10.34469694 71.24200358 -12.5 71.1875 C-13.24773682 71.17831543 -13.99547363 71.16913086 -14.76586914 71.15966797 C-21.43028904 70.93972973 -26.19834826 69.55165174 -31.0625 64.6875 C-31.3125 62.1875 -31.3125 62.1875 -31.0625 59.6875 C-30.4025 59.0275 -29.7425 58.3675 -29.0625 57.6875 C-25.64290624 57.88865257 -23.1865043 59.12886501 -20.25 60.75 C-15.8592427 63.007395 -12.97990644 63.32200406 -8.0625 62.6875 C-3.95804238 60.75143508 -2.3960908 59.28796343 -0.1875 55.3125 C0.92709928 51.72101342 1.50173267 49.39531471 0.9375 45.6875 C-2.75539936 39.39627256 -9.18423242 37.76059459 -15.62109375 35.16992188 C-21.31125194 32.77428896 -25.12178937 30.49618066 -29.0625 25.6875 C-30.69355831 20.44113821 -31.20377895 14.57021322 -29.15625 9.3984375 C-23.14379195 -0.8921157 -11.10885556 -4.54345056 0 0 Z " fill="#5A5A5A" transform="translate(792.0625,310.3125)"/>
<path d="M0 0 C4.72231013 2.71281646 4.72231013 2.71281646 5.9375 4.6875 C5.625 7.375 5.625 7.375 4.9375 9.6875 C2.75 10.375 2.75 10.375 -0.0625 10.6875 C-0.76375 10.213125 -1.465 9.73875 -2.1875 9.25 C-6.65948241 6.81957478 -11.08385224 7.02112715 -16.0625 7.6875 C-18.92248345 8.96267874 -18.92248345 8.96267874 -20.0625 11.6875 C-20.74835637 15.79941798 -20.74835637 15.79941798 -20.0625 19.6875 C-15.70352438 25.21805799 -10.08517719 27.06886803 -3.74414062 29.56054688 C1.688337 31.81082003 5.10807157 34.18687285 8.9375 38.6875 C11.10125496 45.17876489 11.22898471 53.85439593 8.4375 60.1875 C5.57608374 64.97368187 0.86070463 68.22589768 -4.0625 70.6875 C-21.63654143 71.84020594 -21.63654143 71.84020594 -29.0625 66.6875 C-31.0625 64.6875 -31.0625 64.6875 -31.3125 62.1875 C-31.0625 59.6875 -31.0625 59.6875 -29.0625 57.6875 C-25.64290624 57.88865257 -23.1865043 59.12886501 -20.25 60.75 C-15.8592427 63.007395 -12.97990644 63.32200406 -8.0625 62.6875 C-3.95804238 60.75143508 -2.3960908 59.28796343 -0.1875 55.3125 C0.92709928 51.72101342 1.50173267 49.39531471 0.9375 45.6875 C-2.75539936 39.39627256 -9.18423242 37.76059459 -15.62109375 35.16992188 C-21.31125194 32.77428896 -25.12178937 30.49618066 -29.0625 25.6875 C-30.69355831 20.44113821 -31.20377895 14.57021322 -29.15625 9.3984375 C-23.14379195 -0.8921157 -11.10885556 -4.54345056 0 0 Z " fill="#5A5A5A" transform="translate(1120.0625,310.3125)"/>
<path d="M0 0 C2.44534816 1.40085271 4.18958721 2.62708721 6.1875 4.625 C6.375 7.6875 6.375 7.6875 6.1875 10.625 C5.1875 11.625 5.1875 11.625 3 12 C0.1875 11.625 0.1875 11.625 -2.25 9.125 C-6.33183263 5.40457964 -11.21473556 5.93535729 -16.4609375 6.15625 C-21.13181954 6.80952022 -23.87374335 7.90422128 -26.8125 11.625 C-32.968222 21.77143941 -34.29415502 32.07280008 -32.28125 43.69140625 C-30.25962945 50.88793593 -27.05340306 56.30437481 -20.8125 60.625 C-14.30759657 62.79330114 -9.21677773 62.0690734 -3.0625 59.125 C-2.18078125 58.6609375 -1.2990625 58.196875 -0.390625 57.71875 C2.35925847 56.55213277 4.23416186 56.41252963 7.1875 56.625 C8 58.8125 8 58.8125 8.1875 61.625 C4.81107982 66.19950476 0.70501841 68.5789871 -4.8125 69.625 C-21.85175043 71.14666024 -21.85175043 71.14666024 -28.95703125 66.2265625 C-37.09228276 59.20455593 -41.14636767 51.28195963 -42.8125 40.625 C-43.56795135 27.09951521 -42.51078754 17.14230036 -34.0078125 6.05078125 C-25.47764936 -3.37489724 -11.38554806 -5.65948295 0 0 Z " fill="#5B5B5A" transform="translate(533.8125,311.375)"/>
<path d="M0 0 C0.7895961 0.00404846 1.5791922 0.00809692 2.39271545 0.01226807 C3.2040242 0.01035461 4.01533295 0.00844116 4.85122681 0.00646973 C6.56859141 0.00510765 8.28596629 0.00880568 10.00331116 0.01715088 C12.63269719 0.02783648 15.26139783 0.01726371 17.89076233 0.00445557 C19.55808155 0.00577743 21.22540034 0.00834038 22.89271545 0.01226807 C23.68028732 0.0082196 24.46785919 0.00417114 25.27929688 0 C29.11561337 0.03294624 30.94169781 0.09961047 34.2091217 2.27789307 C33.8791217 4.25789307 33.5491217 6.23789307 33.2091217 8.27789307 C27.9291217 8.27789307 22.6491217 8.27789307 17.2091217 8.27789307 C17.21697693 11.07942871 17.21697693 11.07942871 17.22499084 13.93756104 C17.24109935 20.10025636 17.25259896 26.26294671 17.26093388 32.42565727 C17.26615814 36.16303556 17.27324754 39.90039113 17.28456116 43.63775635 C17.29540621 47.24279123 17.30140198 50.84780422 17.30399895 54.45285416 C17.30585027 55.83000152 17.30946531 57.20714766 17.31485176 58.58428574 C17.32208351 60.50932401 17.32252994 62.43438419 17.32264709 64.35943604 C17.32486771 65.45641815 17.32708832 66.55340027 17.32937622 67.68362427 C17.2091217 70.27789307 17.2091217 70.27789307 16.2091217 72.27789307 C14.2291217 72.27789307 12.2491217 72.27789307 10.2091217 72.27789307 C8.84673094 69.55311155 9.08942213 67.40948451 9.09559631 64.35943604 C9.09567184 63.11830048 9.09574738 61.87716492 9.0958252 60.59841919 C9.1009322 59.23897258 9.1061482 57.87952637 9.11146545 56.52008057 C9.11333029 55.13288422 9.11475388 53.74568723 9.11575317 52.35848999 C9.11957323 48.70554794 9.12939915 45.05264559 9.14045715 41.39971924 C9.15068227 37.67291806 9.15525316 33.94611048 9.16029358 30.21929932 C9.17102187 22.90547703 9.18861454 15.59169567 9.2091217 8.27789307 C3.9291217 8.27789307 -1.3508783 8.27789307 -6.7908783 8.27789307 C-7.1208783 6.29789307 -7.4508783 4.31789307 -7.7908783 2.27789307 C-5.22135713 -0.2916281 -3.50321257 0.0302153 0 0 Z " fill="#585858" transform="translate(411.79087829589844,308.72210693359375)"/>
<path d="M0 0 C0.97324219 -0.02449219 1.94648437 -0.04898437 2.94921875 -0.07421875 C9.51882185 -0.10074474 13.8192204 0.78770175 19.375 4.375 C19.87 5.86 19.87 5.86 20.375 7.375 C17.24570822 9.20569903 14.99856854 9.61431181 11.390625 9.5703125 C10.54790039 9.56531738 9.70517578 9.56032227 8.83691406 9.55517578 C7.2470166 9.52786377 7.2470166 9.52786377 5.625 9.5 C2.2425 9.45875 -1.14 9.4175 -4.625 9.375 C-4.955 17.625 -5.285 25.875 -5.625 34.375 C-2.985 34.375 -0.345 34.375 2.375 34.375 C3.625 41 3.625 41 1.375 44.375 C-0.275 44.045 -1.925 43.715 -3.625 43.375 C-3.63958252 44.21272949 -3.65416504 45.05045898 -3.66918945 45.91357422 C-3.73020707 49.01878902 -3.80435065 52.12333117 -3.88745117 55.22802734 C-3.93709959 57.23382336 -3.97154164 59.23997687 -4.00585938 61.24609375 C-4.04130859 62.50292969 -4.07675781 63.75976562 -4.11328125 65.0546875 C-4.13946533 66.21726074 -4.16564941 67.37983398 -4.19262695 68.57763672 C-4.33531006 69.5007666 -4.47799316 70.42389648 -4.625 71.375 C-7.625 73.375 -7.625 73.375 -9.75 73.0625 C-11.625 72.375 -11.625 72.375 -12.625 71.375 C-12.72978906 69.23842958 -12.76356654 67.09835662 -12.77026367 64.95922852 C-12.77362228 64.28929871 -12.7769809 63.6193689 -12.78044128 62.92913818 C-12.78997721 60.70404226 -12.79189572 58.47902137 -12.79296875 56.25390625 C-12.79617953 54.71312936 -12.79954346 53.17235278 -12.80305481 51.63157654 C-12.80905272 48.39752495 -12.81089404 45.16350012 -12.81030273 41.92944336 C-12.81020108 37.7785248 -12.82385353 33.62777717 -12.84107494 29.47689915 C-12.8521754 26.29338284 -12.85422255 23.10990812 -12.85369301 19.92637444 C-12.85487607 18.39571481 -12.85931603 16.8650542 -12.86702538 15.33441353 C-12.87678599 13.19620812 -12.87396305 11.05837702 -12.86791992 8.92016602 C-12.86934494 7.70184586 -12.87076996 6.4835257 -12.87223816 5.22828674 C-12.26676343 -1.75927955 -5.43189986 0.00702704 0 0 Z " fill="#585857" transform="translate(620.625,308.625)"/>
<path d="M0 0 C1.43653773 3.87330307 2.86021725 7.7510717 4.27246094 11.63330078 C4.75402662 12.95162724 5.23900602 14.26871218 5.72753906 15.58447266 C6.43168344 17.48278842 7.12317655 19.38532252 7.8125 21.2890625 C8.23144531 22.43068848 8.65039062 23.57231445 9.08203125 24.74853516 C10.00593067 28.02100654 10.25478792 30.61968869 10 34 C9 35 9 35 5.9375 35.0625 C4.968125 35.041875 3.99875 35.02125 3 35 C2.1605118 32.89828133 1.32860344 30.79353375 0.5 28.6875 C0.0359375 27.51574219 -0.428125 26.34398437 -0.90625 25.13671875 C-2 22 -2 22 -2 19 C-12.56 19 -23.12 19 -34 19 C-34.66 21.97 -35.32 24.94 -36 28 C-36.94280904 30.3570226 -37.92378945 32.70082291 -39 35 C-40.98 35 -42.96 35 -45 35 C-46.88139168 28.45327055 -43.98782753 22.93848939 -41.8125 16.75 C-41.41224609 15.54085938 -41.01199219 14.33171875 -40.59960938 13.0859375 C-40.20193359 11.93867188 -39.80425781 10.79140625 -39.39453125 9.609375 C-39.03206299 8.55717773 -38.66959473 7.50498047 -38.29614258 6.42089844 C-37 4 -37 4 -34.9128418 3.27441406 C-34.281604 3.18385742 -33.65036621 3.09330078 -33 3 C-32.67 2.34 -32.34 1.68 -32 1 C-32 2.32 -32 3.64 -32 5 C-31.01 5 -30.02 5 -29 5 C-29.66 7.31 -30.32 9.62 -31 12 C-22.42 12 -13.84 12 -5 12 C-5.495 11.01 -5.495 11.01 -6 10 C-6.4069579 6.25598728 -6.49904726 4.63212653 -4.125 1.625 C-2 0 -2 0 0 0 Z " fill="#595958" transform="translate(591,346)"/>
<path d="M0 0 C2.61125422 0.95745988 3.79164659 1.65621688 5.25 4.0625 C7.08568288 11.25225793 6.38316466 18.36279909 3 25 C-1.66978629 30.37025424 -7.19441798 31.51052209 -14 33 C-10.31575692 37.73052359 -6.59088805 42.37623347 -2.57421875 46.828125 C-1.98471436 47.48675537 -1.39520996 48.14538574 -0.7878418 48.82397461 C0.3918866 50.13612643 1.5816907 51.43929783 2.78198242 52.73266602 C6.89866659 57.33138045 6.89866659 57.33138045 7.4375 60.88671875 C7 63 7 63 6 64 C3.203125 64.36328125 3.203125 64.36328125 0 64 C-2.203125 61.98046875 -2.203125 61.98046875 -4.25 59.1875 C-7.39953445 55.06235219 -10.60672133 51.13020665 -14.125 47.3125 C-18.1525296 42.93256156 -22.10656454 38.49936747 -26 34 C-25.01 33.505 -25.01 33.505 -24 33 C-23.34227572 29.97065509 -23.34227572 29.97065509 -23 27 C-23.99 26.34 -24.98 25.68 -26 25 C-24.83082031 24.98582031 -23.66164063 24.97164063 -22.45703125 24.95703125 C-20.90881543 24.91011562 -19.36063956 24.86186831 -17.8125 24.8125 C-17.04357422 24.80669922 -16.27464844 24.80089844 -15.48242188 24.79492188 C-11.39461304 24.63702368 -9.41949749 24.29435557 -5.98828125 21.88671875 C-3.55477976 18.35359969 -3.40253091 16.25811469 -3.375 12 C-3.32123145 7.0102785 -2.93382239 4.09803762 0 0 Z " fill="#5C5C5B" transform="translate(1013,317)"/>
<path d="M0 0 C17.80754717 -0.58867925 17.80754717 -0.58867925 23 4 C25.91222461 8.03953737 26.58699783 11.80421409 26.421875 16.68359375 C25.5796744 21.3078989 23.15005474 25.39262734 19.375 28.21484375 C15.69417524 29.43169536 12.09525082 29.20726303 8.25 29.125 C4.16625 29.063125 4.16625 29.063125 0 29 C0 19.43 0 9.86 0 0 Z " fill="#FCFCFC" transform="translate(304,317)"/>
<path d="M0 0 C2.5625 -0.25 2.5625 -0.25 5 0 C6.86800363 1.86800363 6.13757653 5.01639519 6.14526367 7.50756836 C6.15030159 8.52709343 6.15030159 8.52709343 6.15544128 9.56721497 C6.16497745 11.82477624 6.16689573 14.08226356 6.16796875 16.33984375 C6.17117951 17.90304089 6.17454344 19.46623771 6.17805481 21.0294342 C6.18405278 24.31056414 6.18589403 27.5916677 6.18530273 30.87280273 C6.18520108 35.08425444 6.19885364 39.29553767 6.21607494 43.50694942 C6.2271751 46.73678875 6.22922256 49.9665871 6.22869301 53.19644356 C6.22987612 54.7494318 6.2343163 56.30242099 6.24202538 57.85539055 C6.25178539 60.02472723 6.24896328 62.19369492 6.24291992 64.36303711 C6.24434494 65.59912216 6.24576996 66.83520721 6.24723816 68.10874939 C6 71 6 71 4 73 C1.4375 72.75 1.4375 72.75 -1 72 C-2.40942399 69.18115203 -2.13505159 66.82278628 -2.14526367 63.67016602 C-2.14862228 63.02120361 -2.1519809 62.37224121 -2.15544128 61.70361328 C-2.16495709 59.55369158 -2.16689468 57.40384771 -2.16796875 55.25390625 C-2.17118082 53.76179471 -2.17454485 52.2696835 -2.17805481 50.77757263 C-2.1840476 47.64785024 -2.18589455 44.51815546 -2.18530273 41.38842773 C-2.18520109 37.3755174 -2.19885538 33.36278391 -2.21607494 29.3499155 C-2.22718625 26.26758509 -2.22922221 23.18529754 -2.22869301 20.10294914 C-2.22987436 18.62335538 -2.23430481 17.14376056 -2.24202538 15.66418648 C-2.2518082 13.59574067 -2.24895427 11.52768035 -2.24291992 9.45922852 C-2.24434494 8.28167496 -2.24576996 7.1041214 -2.24723816 5.8908844 C-2 3 -2 3 0 0 Z " fill="#575757" transform="translate(278,309)"/>
<path d="M0 0 C2.5625 0.1875 2.5625 0.1875 4.5625 2.1875 C4.80973816 4.99609375 4.80973816 4.99609375 4.80541992 8.625 C4.80731827 9.28532227 4.80921661 9.94564453 4.81117249 10.62597656 C4.81488353 12.81327102 4.80417155 15.00023495 4.79296875 17.1875 C4.79177699 18.70442669 4.79132378 20.22135412 4.7915802 21.73828125 C4.79001476 24.91931774 4.78172066 28.10024179 4.76831055 31.28125 C4.75132061 35.36371897 4.74749618 39.44606427 4.74825573 43.52856445 C4.74798411 46.6614704 4.74250414 49.79434917 4.73525429 52.92724609 C4.73206669 54.43277786 4.7301 55.9383127 4.72936058 57.44384766 C4.72719797 59.54595203 4.71845551 61.64792397 4.70776367 63.75 C4.70395187 64.94753906 4.70014008 66.14507812 4.69621277 67.37890625 C4.5625 70.1875 4.5625 70.1875 3.5625 72.1875 C1.56295254 72.23004356 -0.43791636 72.22830783 -2.4375 72.1875 C-4.30735821 70.31764179 -3.56529348 67.15602379 -3.56689453 64.6640625 C-3.56864685 63.98277283 -3.57039917 63.30148315 -3.57220459 62.59954834 C-3.57662242 60.33717333 -3.57368538 58.07487587 -3.5703125 55.8125 C-3.57098556 54.2469074 -3.5719556 52.6813149 -3.57321167 51.11572266 C-3.57468855 47.83039355 -3.57253441 44.54509158 -3.56787109 41.25976562 C-3.5621738 37.03929484 -3.56545286 32.81888764 -3.57144356 28.59841919 C-3.57504944 25.36433428 -3.57391046 22.13026455 -3.57131577 18.8961792 C-3.57064657 17.33957919 -3.57147466 15.78297782 -3.57379532 14.22637939 C-3.5763223 12.05452804 -3.57248065 9.88278104 -3.56689453 7.7109375 C-3.56609894 6.47263184 -3.56530334 5.23432617 -3.56448364 3.95849609 C-3.39504944 0.26115765 -3.39504944 0.26115765 0 0 Z " fill="#565654" transform="translate(660.4375,308.8125)"/>
<path d="M0 0 C2.51625 -0.103125 5.0325 -0.20625 7.625 -0.3125 C8.79603271 -0.38078003 8.79603271 -0.38078003 9.99072266 -0.45043945 C13.95745236 -0.52848504 16.32007451 -0.15722665 19.4375 2.40234375 C22.90042278 5.91277614 23.8580787 7.46724993 24.3125 12.375 C23.91004566 17.04347034 22.66663201 20.22920349 19.4375 23.66015625 C15.76985176 25.67618725 12.35513794 25.31923436 8.25 25.1875 C5.5275 25.125625 2.805 25.06375 0 25 C0 16.75 0 8.5 0 0 Z " fill="#FCFCFC" transform="translate(616,317)"/>
<path d="M0 0 C14.64428386 -0.41446086 14.64428386 -0.41446086 20 3 C22.35215435 5.31237161 22.93367172 6.56557964 23.43359375 9.83984375 C23.44419278 18.24487228 23.44419278 18.24487228 21.125 22.1875 C17.09718671 25.6229878 13.43408547 25.11548208 8.375 25.0625 C5.61125 25.041875 2.8475 25.02125 0 25 C0 16.75 0 8.5 0 0 Z " fill="#FDFDFD" transform="translate(987,317)"/>
<path d="M0 0 C0.66 0 1.32 0 2 0 C2.36351562 1.09054687 2.72703125 2.18109375 3.1015625 3.3046875 C3.34181152 4.02527344 3.58206055 4.74585938 3.82958984 5.48828125 C4.36415939 7.09231804 4.89833289 8.69648687 5.43212891 10.30078125 C6.85701486 14.58128224 8.28857006 18.85932782 9.734375 23.1328125 C10.00942871 23.9489502 10.28448242 24.76508789 10.56787109 25.60595703 C11.09964625 27.18326713 11.63376948 28.75978785 12.17041016 30.33544922 C14 35.77513519 14 35.77513519 14 38 C5.42 38 -3.16 38 -12 38 C-8.625 25.625 -8.625 25.625 -6.73828125 20.01953125 C-6.14370117 18.24545898 -6.14370117 18.24545898 -5.53710938 16.43554688 C-5.13298828 15.23994141 -4.72886719 14.04433594 -4.3125 12.8125 C-3.68891602 10.9552832 -3.68891602 10.9552832 -3.05273438 9.06054688 C-2.03791686 6.03942347 -1.02029029 3.0192786 0 0 Z " fill="#F7F7F7" transform="translate(572,320)"/>
<path d="M0 0 C36.96 0 73.92 0 112 0 C112 1.32 112 2.64 112 4 C74.71 4 37.42 4 -1 4 C-0.67 2.68 -0.34 1.36 0 0 Z " fill="#19B2D0" transform="translate(72,425)"/>
<path d="M0 0 C3.29714793 0.32971479 4.6226839 0.6226839 7 3 C6.01 3.33 5.02 3.66 4 4 C2.30117552 6.49759982 2.30117552 6.49759982 1 9 C0.01 8.34 -0.98 7.68 -2 7 C-2.3125 4.5 -2.3125 4.5 -2 2 C-1.34 1.34 -0.68 0.68 0 0 Z " fill="#676767" transform="translate(1091,368)"/>
<path d="M0 0 C0.99 0.33 1.98 0.66 3 1 C2.67 4.3 2.34 7.6 2 11 C1.01 10.67 0.02 10.34 -1 10 C-2.1875 6.4375 -2.1875 6.4375 -3 3 C-2.01 2.01 -1.02 1.02 0 0 Z " fill="#575755" transform="translate(628,353)"/>
<path d="M0 0 C2.49361571 1.20381448 4.68143083 2.45428722 7 4 C5.02 5.32 3.04 6.64 1 8 C1 7.34 1 6.68 1 6 C-0.65 5.67 -2.3 5.34 -4 5 C-3 2 -3 2 0 0 Z " fill="#555554" transform="translate(1098,313)"/>
<path d="M0 0 C-0.66 1.32 -1.32 2.64 -2 4 C-2.66 4 -3.32 4 -4 4 C-4 4.66 -4 5.32 -4 6 C-5.98 6 -7.96 6 -10 6 C-9.01 5.34 -8.02 4.68 -7 4 C-8.32 3.67 -9.64 3.34 -11 3 C-7.16674383 0.29417212 -4.67461851 -0.32613618 0 0 Z " fill="#0DABC9" transform="translate(130,351)"/>
<path d="M0 0 C4.55384615 -0.36923077 4.55384615 -0.36923077 6.8125 1.5 C7.204375 1.995 7.59625 2.49 8 3 C7.67 3.99 7.34 4.98 7 6 C5 6 3 6 1 6 C1 5.34 1 4.68 1 4 C0.34 4 -0.32 4 -1 4 C-0.67 2.68 -0.34 1.36 0 0 Z " fill="#555554" transform="translate(894,314)"/>
<path d="M0 0 C0.99 0 1.98 0 3 0 C1.25 5.75 1.25 5.75 -1 8 C-1.33 7.34 -1.66 6.68 -2 6 C-5.71599191 5.79913557 -6.77208445 5.8480563 -10 8 C-9.34 6.02 -8.68 4.04 -8 2 C-4.04 2.99 -4.04 2.99 0 4 C-0.33 3.01 -0.66 2.02 -1 1 C-0.67 0.67 -0.34 0.34 0 0 Z " fill="#61615F" transform="translate(862,322)"/>
<path d="M0 0 C1.32 0.66 2.64 1.32 4 2 C4.125 4.375 4.125 4.375 4 7 C3.34 7.66 2.68 8.32 2 9 C-0.125 8.625 -0.125 8.625 -2 8 C-2 7.34 -2 6.68 -2 6 C-1.34 6 -0.68 6 0 6 C0 4.02 0 2.04 0 0 Z " fill="#606060" transform="translate(645,373)"/>
<path d="M0 0 C4.40114397 0.50298788 6.71195019 2.08772731 10 5 C6.44706507 6.14947895 5.20023331 6.0868937 1.6875 4.5625 C0.800625 4.046875 -0.08625 3.53125 -1 3 C-0.67 2.01 -0.34 1.02 0 0 Z " fill="#0EAFCE" transform="translate(171,376)"/>
<path d="M0 0 C2.97 1.65 5.94 3.3 9 5 C8.67 5.66 8.34 6.32 8 7 C3.25 6.125 3.25 6.125 1 5 C1 4.34 1 3.68 1 3 C0.34 2.67 -0.32 2.34 -1 2 C-0.67 1.34 -0.34 0.68 0 0 Z " fill="#13B0CE" transform="translate(161,369)"/>
<path d="M0 0 C0.33 0.66 0.66 1.32 1 2 C0.34 2 -0.32 2 -1 2 C-1 2.99 -1 3.98 -1 5 C-3.35438733 6.42944945 -4.48032433 7.08661261 -7.25 6.625 C-7.8275 6.41875 -8.405 6.2125 -9 6 C-6.11912454 3.59927045 -3.43595166 1.52708963 0 0 Z " fill="#17B3CE" transform="translate(110,359)"/>
<path d="M0 0 C5.75 -0.125 5.75 -0.125 8 1 C7.67 1.99 7.34 2.98 7 4 C6.34 4 5.68 4 5 4 C5 3.34 5 2.68 5 2 C4.34 2 3.68 2 3 2 C3 2.66 3 3.32 3 4 C1.68 3.67 0.36 3.34 -1 3 C-0.67 2.01 -0.34 1.02 0 0 Z " fill="#555555" transform="translate(684,370)"/>
<path d="M0 0 C1.65 0.33 3.3 0.66 5 1 C5 2.32 5 3.64 5 5 C4.360625 4.814375 3.72125 4.62875 3.0625 4.4375 C2.0415625 4.2209375 2.0415625 4.2209375 1 4 C0.67 4.33 0.34 4.66 0 5 C-0.66 5 -1.32 5 -2 5 C-1.34 3.35 -0.68 1.7 0 0 Z " fill="#555553" transform="translate(866,312)"/>
<path d="M0 0 C1.11375 0.3403125 1.11375 0.3403125 2.25 0.6875 C-0.30991624 2.69886276 -2.79590299 4.31595496 -5.75 5.6875 C-6.08 4.6975 -6.41 3.7075 -6.75 2.6875 C-4.29511132 0.41445492 -3.41240272 -0.38777304 0 0 Z " fill="#12AFD2" transform="translate(120.75,331.3125)"/>
<path d="M0 0 C2.31 0 4.62 0 7 0 C6.67 1.65 6.34 3.3 6 5 C4.125 4.75 4.125 4.75 2 4 C0.75 1.9375 0.75 1.9375 0 0 Z " fill="#555553" transform="translate(713,317)"/>
<path d="M0 0 C0.33 0.99 0.66 1.98 1 3 C0.01 3.33 -0.98 3.66 -2 4 C-2.33 4.99 -2.66 5.98 -3 7 C-4.32 6.34 -5.64 5.68 -7 5 C-4.69 3.35 -2.38 1.7 0 0 Z " fill="#626261" transform="translate(507,312)"/>
<path d="M0 0 C0.66 0.33 1.32 0.66 2 1 C-2.18461538 5.92307692 -2.18461538 5.92307692 -6.3125 6.3125 C-7.199375 6.209375 -8.08625 6.10625 -9 6 C-6.12050853 3.76039553 -3.23257974 1.70135776 0 0 Z " fill="#E9F5F6" transform="translate(88,352)"/>
<path d="M0 0 C2.81080836 1.14726872 4.1782406 1.94701628 6.0625 4.25 C4.0825 4.25 2.1025 4.25 0.0625 4.25 C0.0625 3.26 0.0625 2.27 0.0625 1.25 C-1.2575 1.58 -2.5775 1.91 -3.9375 2.25 C-4.2675 1.59 -4.5975 0.93 -4.9375 0.25 C-2.9375 -0.75 -2.9375 -0.75 0 0 Z " fill="#E8F9FA" transform="translate(156.9375,346.75)"/>
<path d="M0 0 C1.4540625 0.0309375 1.4540625 0.0309375 2.9375 0.0625 C2.9375 0.7225 2.9375 1.3825 2.9375 2.0625 C2.2775 2.0625 1.6175 2.0625 0.9375 2.0625 C0.6075 3.3825 0.2775 4.7025 -0.0625 6.0625 C-0.7225 6.0625 -1.3825 6.0625 -2.0625 6.0625 C-2.0625 4.7425 -2.0625 3.4225 -2.0625 2.0625 C-2.7225 1.7325 -3.3825 1.4025 -4.0625 1.0625 C-3.0625 0.0625 -3.0625 0.0625 0 0 Z " fill="#545452" transform="translate(1068.0625,313.9375)"/>
<path d="M0 0 C2.475 0.495 2.475 0.495 5 1 C5.33 2.32 5.66 3.64 6 5 C6.66 5 7.32 5 8 5 C7.67 5.66 7.34 6.32 7 7 C3.535 5.02 3.535 5.02 0 3 C0 2.01 0 1.02 0 0 Z " fill="#E9F6F9" transform="translate(165,369)"/>
<path d="M0 0 C1.485 0.99 1.485 0.99 3 2 C2.67 3.98 2.34 5.96 2 8 C1.01 8 0.02 8 -1 8 C-1.04241723 5.66705225 -1.04092937 3.33297433 -1 1 C-0.67 0.67 -0.34 0.34 0 0 Z " fill="#555553" transform="translate(795,355)"/>
<path d="M0 0 C3.96 1.98 3.96 1.98 8 4 C7.01 4.99 6.02 5.98 5 7 C4.34 7 3.68 7 3 7 C3 6.01 3 5.02 3 4 C2.34 4 1.68 4 1 4 C0.67 2.68 0.34 1.36 0 0 Z " fill="#E4F8F8" transform="translate(138,336)"/>
<path d="M0 0 C0.66 0.33 1.32 0.66 2 1 C2 2.65 2 4.3 2 6 C1.01 6.33 0.02 6.66 -1 7 C-1.66 5.35 -2.32 3.7 -3 2 C-2.01 1.34 -1.02 0.68 0 0 Z " fill="#EDF8F9" transform="translate(117,335)"/>
<path d="M0 0 C0.66 0.33 1.32 0.66 2 1 C1.75 3.875 1.75 3.875 1 7 C-1.0625 8.375 -1.0625 8.375 -3 9 C-3.33 8.34 -3.66 7.68 -4 7 C-3.01 6.34 -2.02 5.68 -1 5 C-0.27034634 2.43717258 -0.27034634 2.43717258 0 0 Z " fill="#676767" transform="translate(540,368)"/>
<path d="M0 0 C3.28212246 0.43761633 4.84832931 1.52557871 7 4 C5.02 4.66 3.04 5.32 1 6 C1 5.01 1 4.02 1 3 C0.34 2.34 -0.32 1.68 -1 1 C-0.67 0.67 -0.34 0.34 0 0 Z " fill="#545452" transform="translate(923,370)"/>
<path d="M0 0 C3.465 1.485 3.465 1.485 7 3 C6.34 3.66 5.68 4.32 5 5 C2.375 4.625 2.375 4.625 0 4 C0 2.68 0 1.36 0 0 Z " fill="#6E6E6E" transform="translate(979,377)"/>
<path d="M0 0 C0.99 0.33 1.98 0.66 3 1 C1.515 4.465 1.515 4.465 0 8 C-0.66 7.67 -1.32 7.34 -2 7 C-2.125 4.625 -2.125 4.625 -2 2 C-1.34 1.34 -0.68 0.68 0 0 Z " fill="#707070" transform="translate(763,368)"/>
<path d="M0 0 C0.99 0 1.98 0 3 0 C3 1.65 3 3.3 3 5 C2.01 5.33 1.02 5.66 0 6 C-0.38218767 4.34385343 -0.71395102 2.67542976 -1 1 C-0.67 0.67 -0.34 0.34 0 0 Z " fill="#595959" transform="translate(537,317)"/>
<path d="M0 0 C0.66 0.33 1.32 0.66 2 1 C1.67 1.99 1.34 2.98 1 4 C-0.875 4.625 -0.875 4.625 -3 5 C-3.99 5.33 -4.98 5.66 -6 6 C-5 3 -5 3 -2.5625 1.25 C-1.716875 0.8375 -0.87125 0.425 0 0 Z " fill="#14B4CC" transform="translate(94,368)"/>
</svg>
